<?xml version="1.0" standalone="no"?>
<!DOCTYPE svg PUBLIC "-//W3C//DTD SVG 20010904//EN"
 "http://www.w3.org/TR/2001/REC-SVG-20010904/DTD/svg10.dtd">
<svg version="1.0" xmlns="http://www.w3.org/2000/svg"
 width="205.000000pt" height="205.000000pt" viewBox="0 0 205.000000 205.000000"
 preserveAspectRatio="xMidYMid meet">
<metadata>
Created by potrace 1.11, written by Peter Selinger 2001-2013
</metadata>
<g transform="translate(0.000000,205.000000) scale(0.100000,-0.100000)"
fill="#000000" stroke="none">
<path d="M21 2041 c-5 -4 -8 -200 -7 -456 l1 -450 456 -1 456 -1 -1 456 -1
456 -447 1 c-246 0 -452 -2 -457 -5z"/>
<path d="M1073 1470 c0 -259 4 -473 8 -476 6 -3 656 -7 922 -4 l22 0 0 473 0
472 -476 3 -476 2 0 -470z"/>
<path d="M121 515 c0 -405 3 -475 15 -476 95 -6 927 -2 932 5 3 5 5 219 5 475
l0 466 -476 2 -476 2 0 -474z"/>
<path d="M1228 882 l-48 -3 0 -369 0 -370 368 3 367 2 3 368 c2 290 0 367 -10
368 -61 2 -644 3 -680 1z"/>
</g>
</svg>
